HIERARCHY
ROOT Hips
{
	OFFSET 0.000000 0.000000 0.000000
	CHANNELS 6 Xposition Yposition Zposition Zrotation Yrotation Xrotation 
	JOINT LHipJoint
	{
		OFFSET 0.000000 0.000000 0.000000
		CHANNELS 3 Zrotation Yrotation Xrotation
		JOINT LeftUpLeg
		{
			OFFSET 1.363060 -1.794630 0.839290
			CHANNELS 3 Zrotation Yrotation Xrotation
			JOINT LeftLeg
			{
				OFFSET 2.448110 -6.726130 0.000000
				CHANNELS 3 Zrotation Yrotation Xrotation
				JOINT LeftFoot
				{
					OFFSET 2.562200 -7.039590 0.000000
					CHANNELS 3 Zrotation Yrotation Xrotation
					JOINT LeftToeBase
					{
						OFFSET 0.157640 -0.433110 2.322550
						CHANNELS 3 Zrotation Yrotation Xrotation
						End Site
						{
							OFFSET 0.000000 0.000000 0.000000
						}
					}
				}
			}
		}
	}
	JOINT RHipJoint
	{
		OFFSET 0.000000 0.000000 0.000000
		CHANNELS 3 Zrotation Yrotation Xrotation
		JOINT RightUpLeg
		{
			OFFSET -1.305520 -1.794630 0.839290
			CHANNELS 3 Zrotation Yrotation Xrotation
			JOINT RightLeg
			{
				OFFSET -2.542530 -6.985550 0.000000
				CHANNELS 3 Zrotation Yrotation Xrotation
				JOINT RightFoot
				{
					OFFSET -2.568260 -7.056230 0.000000
					CHANNELS 3 Zrotation Yrotation Xrotation
					JOINT RightToeBase
					{
						OFFSET -0.164730 -0.452590 2.363150
						CHANNELS 3 Zrotation Yrotation Xrotation
						End Site
						{
							OFFSET 0.000000 0.000000 0.000000
						}
					}
				}
			}
		}
	}
	JOINT LowerBack
	{
		OFFSET 0.000000 0.000000 0.000000
		CHANNELS 3 Zrotation Yrotation Xrotation
		JOINT Spine
		{
			OFFSET 0.028270 2.035590 -0.193380
			CHANNELS 3 Zrotation Yrotation Xrotation
			JOINT Spine1
			{
				OFFSET 0.056720 2.048850 -0.042750
				CHANNELS 3 Zrotation Yrotation Xrotation
				JOINT Neck
				{
					OFFSET 0.000000 0.000000 0.000000
					CHANNELS 3 Zrotation Yrotation Xrotation
					JOINT Neck1
					{
						OFFSET -0.054170 1.746240 0.172020
						CHANNELS 3 Zrotation Yrotation Xrotation
						JOINT Head
						{
							OFFSET 0.104070 1.761360 -0.123970
							CHANNELS 3 Zrotation Yrotation Xrotation
							End Site
							{
								OFFSET 0.000000 0.000000 0.000000
							}
						}
					}
				}
				JOINT LeftShoulder
				{
					OFFSET 0.000000 0.000000 0.000000
					CHANNELS 3 Zrotation Yrotation Xrotation
					JOINT LeftArm
					{
						OFFSET 3.362410 1.200890 -0.311210
						CHANNELS 3 Zrotation Yrotation Xrotation
						JOINT LeftForeArm
						{
							OFFSET 4.983000 -0.000000 -0.000000
							CHANNELS 3 Zrotation Yrotation Xrotation
							JOINT LeftHand
							{
								OFFSET 3.483560 -0.000000 -0.000000
								CHANNELS 3 Zrotation Yrotation Xrotation
								JOINT LeftFingerBase
								{
									OFFSET 0.000000 0.000000 0.000000
									CHANNELS 3 Zrotation Yrotation Xrotation
									JOINT LeftHandIndex1
									{
										OFFSET 0.715260 -0.000000 -0.000000
										CHANNELS 3 Zrotation Yrotation Xrotation
										End Site
										{
											OFFSET 0.000000 0.000000 0.000000
										}
									}
								}
								JOINT LThumb
								{
									OFFSET 0.000000 0.000000 0.000000
									CHANNELS 3 Zrotation Yrotation Xrotation
									End Site
									{
										OFFSET 0.000000 0.000000 0.000000
									}
								}
							}
						}
					}
				}
				JOINT RightShoulder
				{
					OFFSET 0.000000 0.000000 0.000000
					CHANNELS 3 Zrotation Yrotation Xrotation
					JOINT RightArm
					{
						OFFSET -3.136600 1.374050 -0.404650
						CHANNELS 3 Zrotation Yrotation Xrotation
						JOINT RightForeArm
						{
							OFFSET -5.241900 -0.000000 -0.000000
							CHANNELS 3 Zrotation Yrotation Xrotation
							JOINT RightHand
							{
								OFFSET -3.444170 -0.000000 -0.000000
								CHANNELS 3 Zrotation Yrotation Xrotation
								JOINT RightFingerBase
								{
									OFFSET 0.000000 0.000000 0.000000
									CHANNELS 3 Zrotation Yrotation Xrotation
									JOINT RightHandIndex1
									{
										OFFSET -0.622530 -0.000000 -0.000000
										CHANNELS 3 Zrotation Yrotation Xrotation
										End Site
										{
											OFFSET 0.000000 0.000000 0.000000
										}
									}
								}
								JOINT RThumb
								{
									OFFSET 0.000000 0.000000 0.000000
									CHANNELS 3 Zrotation Yrotation Xrotation
									End Site
									{
										OFFSET 0.000000 0.000000 0.000000
									}
								}
							}
						}
					}
				}
			}
		}
	}
}
MOTION
Frames: 10
Frame Time: 0.008333
2.318468 16.168797 2.805486 -13.476857 -86.345156 34.141385 -12.037349 -0.306064 1.829366 0.656299 11.625949 -48.071522 -1.406710 2.790582 42.113741 2.507504 12.338423 -8.495005 0.198300 -0.000000 -63.434400 9.206138 1.370761 -0.499935 -4.103053 -15.080435 -31.680146 1.039423 -0.991893 28.609713 -2.485073 -13.441787 1.831675 -3.154900 -0.000000 -81.279499 5.200812 -4.592832 -1.660233 0.036778 -5.040264 -4.016888 -8.566974 -5.115026 -4.350713 14.129581 -10.704427 -2.238452 -3.772631 -0.338127 1.485092 0.000000 0.000000 0.000000 17.804233 -7.399338 -6.009558 -81.998289 -60.023044 11.847183 178.765657 -66.744574 179.638094 19.480491 -17.372893 -3.320068 -0.319253 1.483845 -0.000000 0.000000 0.000000 0.000000 0.000000 0.000000 0.000000 13.104023 -10.359059 1.397894 64.305515 -4.268971 -5.014907 -179.640854 69.270732 179.835761 -20.657225 12.703417 -2.483658 0.296999 -0.682309 0.000000 0.000000 0.000000 0.000000 0.000000 0.000000 0.000000 
2.296711 16.195048 2.817667 -7.524307 -83.371674 28.387125 -11.697784 -0.109579 2.272335 0.759810 9.632352 -48.470761 -1.353895 2.638030 41.203736 2.349830 11.373545 -7.987588 0.296400 0.000000 -63.470200 9.548417 1.425494 -0.807167 -4.159704 -16.433920 -30.060224 1.042778 -0.889608 27.467610 -2.632819 -14.433520 2.201553 -3.456600 -0.000001 -81.015800 5.023212 -4.457686 -1.880905 0.015423 -4.901698 -4.114849 -8.489273 -4.984639 -4.517378 14.039253 -10.647792 -2.197381 -3.725147 -0.336070 1.501279 0.000000 0.000000 0.000000 17.520348 -7.568118 -6.213960 -85.012237 -59.337707 15.614486 178.891677 -67.382247 179.639574 19.579654 -17.319330 -3.328910 -0.331480 1.482478 -0.000000 0.000000 0.000000 0.000000 0.000000 0.000000 0.000000 12.803971 -9.920027 1.652204 63.749546 -6.837234 -6.104317 -179.674400 68.880768 179.837874 -20.852795 12.872862 -2.539426 0.304435 -0.678508 0.000000 0.000000 0.000000 0.000000 0.000000 0.000000 0.000000 
2.273050 16.226228 2.827569 -3.677393 -80.201954 24.784457 -11.439233 0.023306 2.729492 0.758459 7.498480 -48.803686 -1.297549 2.449603 40.092044 2.180679 10.391415 -7.322759 0.406500 -0.000000 -63.531601 9.801721 1.399448 -1.107367 -4.306237 -17.926932 -28.381265 1.069504 -0.794133 26.125101 -2.772532 -15.409384 2.688216 -3.797600 0.000000 -80.722100 4.617546 -4.371029 -2.114409 -0.037204 -4.792926 -4.210175 -8.361436 -4.886946 -4.667656 13.896585 -10.577439 -2.143996 -3.653032 -0.332667 1.520769 0.000000 0.000000 0.000000 17.188602 -7.732697 -6.412982 -87.833761 -58.578338 19.287805 179.011611 -68.059532 179.641957 19.647154 -17.276606 -3.334273 -0.343889 1.480862 -0.000000 0.000000 0.000000 0.000000 0.000000 0.000000 0.000000 12.359615 -9.469912 1.904624 63.130372 -9.252667 -7.213878 -179.711073 68.471974 179.840560 -20.902909 13.007398 -2.571015 0.309865 -0.675699 0.000000 0.000000 0.000000 0.000000 0.000000 0.000000 0.000000 
2.247206 16.261518 2.835680 -0.905221 -76.921347 22.316424 -11.220267 0.139338 3.207264 0.678034 5.264114 -49.084753 -1.246774 2.242375 38.777074 2.003238 9.408250 -6.493178 0.523200 0.000001 -63.633000 10.007617 1.337783 -1.403081 -4.513331 -19.530078 -26.678922 1.109864 -0.694743 24.603098 -2.902494 -16.373664 3.304590 -4.189200 0.000000 -80.552900 4.032702 -4.304600 -2.352044 -0.113847 -4.688432 -4.300875 -8.184014 -4.795566 -4.796756 13.700826 -10.485538 -2.086317 -3.556022 -0.327721 1.541074 0.000000 0.000000 0.000000 16.814287 -7.867301 -6.597906 -90.431057 -57.779790 22.833649 179.122511 -68.772530 179.645247 19.680659 -17.252757 -3.337054 -0.355990 1.478934 -0.000000 0.000000 0.000000 0.000000 0.000000 0.000000 0.000000 11.775484 -8.986739 2.158060 62.408188 -11.517316 -8.375410 -179.753898 68.066882 179.844018 -20.784655 13.076018 -2.569130 0.313168 -0.673213 0.000000 0.000000 0.000000 0.000000 0.000000 0.000000 0.000000 
2.219507 16.300186 2.842297 1.247334 -73.579147 20.526577 -11.014069 0.255440 3.700975 0.535896 2.956956 -49.301359 -1.205788 2.023335 37.260412 1.819855 8.440484 -5.495103 0.640700 0.000000 -63.782200 10.193283 1.262037 -1.697178 -4.771138 -21.228335 -24.972902 1.160205 -0.590528 22.934244 -3.020604 -17.315500 4.035488 -4.628900 0.000001 -80.345400 3.301250 -4.247001 -2.576024 -0.210593 -4.578580 -4.382532 -7.961147 -4.699787 -4.899486 13.456894 -10.369938 -2.032537 -3.435471 -0.321158 1.559489 0.000000 0.000000 0.000000 16.396111 -7.960063 -6.760133 -92.765720 -56.996598 26.231313 179.222741 -69.515764 179.649334 19.686484 -17.239627 -3.336965 -0.367672 1.476239 -0.000000 0.000000 0.000000 0.000000 0.000000 0.000000 0.000000 11.069709 -8.462458 2.415445 61.546056 -13.637192 -9.616565 -179.805065 67.686432 179.848283 -20.510317 13.064587 -2.532370 0.314780 -0.670494 0.000000 0.000000 0.000000 0.000000 0.000000 0.000000 0.000000 
2.190126 16.341401 2.847777 3.005663 -70.216447 19.191860 -10.804219 0.377454 4.205707 0.348165 0.598943 -49.444600 -1.176884 1.796857 35.549899 1.633796 7.508509 -4.328948 0.753900 0.000000 -63.980000 10.375998 1.184043 -1.989935 -5.072231 -23.004564 -23.287271 1.218210 -0.482509 21.148982 -3.126982 -18.234080 4.872522 -5.117600 -0.000000 -80.050300 2.450744 -4.191216 -2.774941 -0.323973 -4.458179 -4.452608 -7.696379 -4.593629 -4.973561 13.170612 -10.231245 -1.988971 -3.294033 -0.313030 1.573914 0.000000 0.000000 0.000000 15.935841 -8.008083 -6.895712 -94.823120 -56.272653 29.471837 179.312046 -70.281298 179.654161 19.665583 -17.233855 -3.333313 -0.378689 1.472516 -0.000000 0.000000 0.000000 0.000000 0.000000 0.000000 0.000000 10.267040 -7.894880 2.680504 60.498478 -15.634366 -10.944803 -179.866334 67.350826 179.853226 -20.131776 12.974467 -2.468331 0.315888 -0.667075 -0.000000 0.000000 0.000000 0.000000 0.000000 0.000000 0.000000 
2.159755 16.384411 2.852465 4.489839 -66.872377 18.184851 -10.580536 0.504658 4.713429 0.131197 -1.787332 -49.502545 -1.161611 1.566677 33.658967 1.449028 6.636038 -3.001342 0.859500 0.000000 -64.217600 10.567081 1.112082 -2.282818 -5.412992 -24.836801 -21.638827 1.280886 -0.372257 19.272172 -3.223730 -19.140248 5.817396 -5.661900 0.000000 -79.833400 1.505242 -4.131333 -2.935863 -0.451119 -4.323188 -4.508877 -7.393334 -4.472318 -5.020124 12.849056 -10.074260 -1.960492 -3.135308 -0.303477 1.582688 0.000000 0.000000 0.000000 15.438496 -8.013923 -7.004877 -96.604482 -55.642982 32.551823 179.390261 -71.062787 179.659707 19.614145 -17.235829 -3.325600 -0.388546 1.467642 -0.000000 0.000000 0.000000 0.000000 0.000000 0.000000 0.000000 9.397041 -7.287403 2.956836 59.217891 -17.535079 -12.340028 -179.938689 67.080137 179.858568 -19.728169 12.823638 -2.391004 0.318178 -0.662731 -0.000000 0.000000 0.000000 0.000000 0.000000 0.000000 0.000000 
2.128900 16.428382 2.856568 5.774191 -63.587793 17.425713 -10.337762 0.633225 5.215393 -0.098124 -4.178038 -49.464879 -1.161259 1.336294 31.608016 1.270086 5.848567 -1.525968 0.956500 0.000001 -64.476399 10.773135 1.051489 -2.577313 -5.790484 -26.697363 -20.042904 1.346370 -0.262280 17.341140 -3.311542 -20.030386 6.847277 -6.255999 0.000000 -79.601301 0.488946 -4.061150 -3.048225 -0.588894 -4.169632 -4.549768 -7.054921 -4.331139 -5.041578 12.497146 -9.908490 -1.950532 -2.962616 -0.292640 1.584604 0.000000 0.000000 0.000000 14.907540 -7.982823 -7.091019 -98.123711 -55.133547 35.470302 179.456736 -71.850649 179.665848 19.532735 -17.242181 -3.313131 -0.396871 1.461458 -0.000000 0.000000 0.000000 0.000000 0.000000 0.000000 0.000000 8.483820 -6.649464 3.247510 57.662423 -19.359791 -13.756354 179.977821 66.894176 179.863955 -19.382004 12.644331 -2.316882 0.323345 -0.657598 -0.000000 0.000000 0.000000 0.000000 0.000000 0.000000 0.000000 
2.098334 16.472545 2.860332 6.900537 -60.403330 16.861708 -10.075349 0.756876 5.702470 -0.320999 -6.546811 -49.326398 -1.176414 1.109324 29.426012 1.101686 5.170783 0.075574 1.047400 -0.000001 -64.729800 10.995925 1.005147 -2.873888 -6.199273 -28.548941 -18.510180 1.411681 -0.154548 15.390224 -3.392753 -20.909212 7.940354 -6.896000 0.000000 -79.302201 -0.570427 -3.974030 -3.105269 -0.732893 -3.993611 -4.574225 -6.682357 -4.165450 -5.039968 12.112990 -9.747309 -1.961418 -2.777915 -0.280588 1.578875 0.000000 0.000000 0.000000 14.340162 -7.919235 -7.158554 -99.401878 -54.760748 38.225056 179.510278 -72.638027 179.672383 19.426617 -17.244005 -3.295111 -0.403394 1.453642 -0.000000 0.000000 0.000000 0.000000 0.000000 0.000000 0.000000 7.536668 -5.995548 3.554439 55.804553 -21.108491 -15.128711 179.884323 66.827396 179.869091 -19.155507 12.481219 -2.261353 0.332465 -0.652127 -0.000000 0.000000 0.000000 0.000000 0.000000 0.000000 0.000000 
2.068966 16.516140 2.863752 7.899061 -57.356836 16.446630 -9.795227 0.868567 6.165628 -0.522123 -8.869408 -49.084121 -1.207059 0.888803 27.147984 0.948501 4.626221 1.774569 1.138101 -0.000000 -64.945601 11.234523 0.974961 -3.173900 -6.637285 -30.362002 -17.047409 1.474757 -0.051504 13.454381 -3.468106 -21.770626 9.070145 -7.571600 0.000000 -78.945499 -1.650496 -3.864693 -3.100984 -0.879340 -3.792296 -4.581395 -6.275921 -3.971728 -5.018626 11.694707 -9.602871 -1.993018 -2.582947 -0.267411 1.565472 0.000000 0.000000 0.000000 13.738574 -7.826711 -7.213823 -100.471893 -54.528315 40.813436 179.550140 -73.417034 179.679271 19.284673 -17.248428 -3.270942 -0.407206 1.444413 -0.000000 0.000000 0.000000 0.000000 0.000000 0.000000 0.000000 6.562684 -5.340254 3.877547 53.611793 -22.764700 -16.372719 179.782692 66.912142 179.873785 -19.090650 12.365447 -2.234116 0.346213 -0.646662 -0.000000 0.000000 0.000000 0.000000 0.000000 0.000000 0.000000 
